<svg xmlns="http://www.w3.org/2000/svg" viewBox="-76 212 458 369">
    <title>
        CoffeeScript Logo
    </title>
    <path d="M106 228.6c.5 2.3-.9 4.4-5 6.5-5.5-3.1-16.9-4.4-26.7-3.5-10.4.9-19.4 4.2-17.9 11.3 1.5 7.1 11.7 11 29.5 9.5 43.6-3.8 43.4-33.3 107.4-39 49.8-4.4 77.8 11 81.8 29.7 3.1 14.7-9.1 28.6-45.2 31.8-32 2.8-50.7-5.6-52.6-14.6-1-4.5 1.8-11.3 17.2-13.1 1.5 7 10.6 14.4 31.1 12.6 14.8-1.3 27.6-6.6 25.9-14.9-1.8-8.6-17.7-13.7-42.6-11.5-50.7 4.5-63.2 32.5-106.8 36.3-30.8 2.7-55.9-8.5-59.4-25.1-1.3-6.1-1.4-21 31.2-23.9 17.1-1.5 30.7 1.5 32.1 7.9zM-56.4 402.5c-14.3 18-20.4 38.8-19.2 59.2 1.2 20.4 11.4 37.1 26.9 50.2C-32 525-14 528.6 6.4 525c7.8-1.2 16.7-5.3 24.5-7.8-16.7 0-31-5.3-44.9-16.7-15.5-11.4-25.7-26.9-28.2-46.1-3.7-18 0-34.7 10.2-49 11.4-14.3 25.7-22 44.9-24.5 19.2-1.2 35.9 3.7 52.6 15.5-3.7-5.3-9-9-14.3-14.3-16.7-11.4-34.7-16.7-56.7-11.4-19.9 3.6-36.7 13.8-50.9 31.8zm223.6-96.3c-53.9 0-101.6-5.3-136.3-13.1-37.1-9-56.7-19.2-56.7-32.2 0-5.3 2.4-10.2 10.2-15.5-23.3 9-35.9 16.7-35.9 28.2 1.2 13.1 22 25.7 64.5 35.9 40 10.2 91.4 15.5 153 15.5 62.8 0 113-5.3 153-15.5 42.4-10.2 62.8-23.3 62.8-35.9 0-9-9-18-25.7-24.5 3.7 2.4 6.5 6.5 6.5 11.4 0 13.1-19.2 23.3-57.9 32.2-36 8.2-82.1 13.5-137.5 13.5zm153 35.9c-40 9-91.4 15.5-153 15.5-62.8 0-114.2-6.5-154.2-15.5-35.9-9-55.1-19.2-61.6-29.4 6.5 44.9 22 87.3 42.4 124.8 15.5 23.3 31 43.7 46.1 65.7 6.5 13.1 11.4 25.7 14.3 38.8 10.2 14.3 24.5 23.3 42.4 28.2 22 7.8 44.9 11.4 68.1 10.2h2.4c23.3 1.2 47.7-2.4 70.6-10.2 16.7-5.3 31-14.3 41.2-28.2h1.2c2.4-13.1 6.5-25.7 13.1-38.8 15.5-22 31-42.4 46.1-65.7 20.4-37.1 34.7-79.6 42.4-124.8-7.7 11.4-26.9 21.6-61.5 29.4z"></path>
</svg>
