<svg xmlns="http://www.w3.org/2000/svg" viewBox="-22 347 566 100">
  <title>
    CoffeeScript Logo
  </title>
  <path d="M21.7 351.1c.1.6-.2 1.1-1.2 1.6-1.3-.7-4.1-1.1-6.4-.9-2.5.2-4.6 1-4.3 2.7.4 1.7 2.8 2.7 7.1 2.3 10.5-.9 10.4-8 25.8-9.4 12-1.1 18.7 2.6 19.6 7.1.7 3.5-2.2 6.9-10.9 7.6-7.7.7-12.2-1.4-12.6-3.5-.2-1.1.4-2.7 4.1-3.1.4 1.7 2.5 3.5 7.5 3 3.6-.3 6.6-1.6 6.2-3.6-.4-2.1-4.2-3.3-10.2-2.8-12.2 1.1-15.2 7.8-25.6 8.7-7.4.7-13.4-2-14.2-6-.3-1.5-.3-5 7.5-5.7 4-.3 7.2.4 7.6 2zm-39 41.8c-3.4 4.3-4.9 9.3-4.6 14.2.3 4.9 2.7 8.9 6.5 12 4 3.1 8.3 4 13.2 3.1 1.9-.3 4-1.3 5.9-1.9-4 0-7.4-1.3-10.8-4-3.7-2.7-6.2-6.5-6.8-11.1-.9-4.3 0-8.3 2.4-11.8 2.7-3.4 6.2-5.3 10.8-5.9 4.6-.3 8.6.9 12.6 3.7-.9-1.3-2.2-2.2-3.4-3.4-4-2.7-8.3-4-13.6-2.7-4.8 1-8.8 3.5-12.2 7.8zm53.6-23.1c-12.9 0-24.4-1.3-32.7-3.1-8.9-2.2-13.6-4.6-13.6-7.7 0-1.3.6-2.4 2.4-3.7-5.6 2.2-8.6 4-8.6 6.8.3 3.1 5.3 6.2 15.5 8.6 9.6 2.4 21.9 3.7 36.7 3.7 15.1 0 27.1-1.3 36.7-3.7 10.2-2.4 15.1-5.6 15.1-8.6 0-2.2-2.2-4.3-6.2-5.9.9.6 1.6 1.6 1.6 2.7 0 3.1-4.6 5.6-13.9 7.7-8.6 1.9-19.6 3.2-33 3.2zm36.8 8.6c-9.6 2.2-21.9 3.7-36.7 3.7-15.1 0-27.4-1.6-37-3.7-8.6-2.2-13.2-4.6-14.8-7.1 1.6 10.8 5.3 21 10.2 30 3.7 5.6 7.4 10.5 11.1 15.8 1.6 3.1 2.7 6.2 3.4 9.3 2.4 3.4 5.9 5.6 10.2 6.8 5.3 1.9 10.8 2.7 16.4 2.4h.6c5.6.3 11.5-.6 16.9-2.4 4-1.3 7.4-3.4 9.9-6.8h.3c.6-3.1 1.6-6.2 3.1-9.3 3.7-5.3 7.4-10.2 11.1-15.8 4.9-8.9 8.3-19.1 10.2-30-2 2.8-6.6 5.2-14.9 7.1zm106.2 30.1c-4.8 12.1-17.6 16.9-25.9 16.9-13.4 0-19.9-6-19.9-22.3 0-16.5 7.9-47.3 31.7-47.3 8.5 0 15.2 3.3 15.2 12.1 0 4.8-1.8 8.3-6.4 8.3-1.5 0-3.4-.4-5.2-2.4 2.2-1.1 4.2-4.9 4.2-8.3 0-2.9-1.5-5.6-5.6-5.6-10 0-18.9 23.9-18.9 42.4 0 8.3 2.2 14.2 10.9 14.2 7.1 0 13.5-3.4 17.7-9.1l2.2 1.1zm32.9-16.3c.4.2.7.2 1 .2 4.2 0 10.1-2.7 14-5.5l.8 2.4c-3.4 3.7-9.5 6.5-16.1 7.5-1.5 16.8-10.6 27.3-21.7 27.3-8.4 0-14.5-4-14.5-14.4 0-10.5 6.2-32.2 24.9-32.2 7.8.3 11.6 5.3 11.6 14.7zm-7.7 5c-1.9-.5-2.4-2-2.4-3.8 0-2.5 1.2-4.2 2.8-4.9-.2-3.8-1.1-5.3-3.4-5.3-6.5 0-12 16.6-12 25.6 0 6 1.2 7.3 4.6 7.3 4.2.1 8.9-8 10.4-18.9zm-6.6 39.7c0-8.3 7.1-11 15.8-13.6l10.9-51.9c2.7-13 10.6-15.5 16.5-15.5 4.1 0 8 2.2 9.7 5.7 3.6-4.6 8.4-5.7 12.4-5.7 5.6 0 10.8 3.9 10.8 9.8 0 1.5-.1 2.6-.3 3.7h-4.3c.1-.9.2-1.7.2-2.4 0-2.1-1.7-3.1-3.4-3.1-2 0-4.8 1.1-6.2 7.1l-1.7 7.4h9.1l-.8 3.6h-9l-10.3 49.1c-2.7 13-10.6 15.5-16.5 15.5-5.2 0-8.3-2.3-9.8-5.7-3.5 4.6-8.3 5.7-12.3 5.7-5.6.1-10.8-3.8-10.8-9.7zm9.1 1.8c1.9 0 4.2-1.8 5.4-7.1l1.1-5.3c-5.7 2-10.1 4.4-10.1 9.4 0 1.2 1.7 3 3.6 3zm21.7 0c1.9 0 4.2-1.8 5.4-7.1l2.2-10.4-9.4 1.8-1.8 8.3c-.5 2.1-1.1 4-1.8 5.6.9 1.3 3 1.8 5.4 1.8zm-1.4-18l9.4-1.7 7.7-36.8h-9l-8.1 38.5zm16.6-56.7c-2 0-4.8 1.1-6.2 7.1l-1.7 7.4h9l2.1-9.5c.2-.7.2-1.3.2-2 .1-2-1.5-3-3.4-3zm37.9 53c7.1 0 11.6-4 16.1-9.2h3.1c-5.2 8.3-12.9 16.8-25 16.8-8.5 0-14.2-4.2-14.2-14.5 0-10.5 5.9-32.3 24.6-32.3 8.1 0 10 4.2 10 8.7 0 10.5-10 18.5-20.9 19.2-.1 1.3-.2 2.5-.2 3.6 0 6.2 2.2 7.7 6.5 7.7zm5.3-34.4c-4.6 0-9.1 9.7-10.9 18.7 7-.5 13.2-7.4 13.2-15 0-2.2-.5-3.7-2.3-3.7zm28.6 33.4c3.4 0 7.8-2.3 10.8-4.8-2 10.4-8.4 13.4-15.8 13.4-8.4 0-14.1-4.2-14.1-14.5 0-10.5 5.9-32.3 24.6-32.3 8.1 0 10 4.2 10 8.7 0 10.6-10 18.5-20.9 19.2-.1.9-.2 2-.2 2.7 0 5.7 2.5 7.6 5.6 7.6zm6.2-33.4c-4.5 0-9.1 10.1-11 18.7 7.1-.4 13.3-7.3 13.3-15 0-2.2-.6-3.7-2.3-3.7zm51.3-6.7c-1.7 0-3-.6-4.2-1.9 2.4-1.5 4.1-4.8 4.1-7.8 0-3.1-1.8-6.1-6.8-6.1s-8.3 2.8-8.3 8.2c0 13.3 20.5 15.2 20.5 34.8 0 15.3-12.3 22.7-25.6 22.7-10.4 0-19.3-4.5-19.3-15.7 0-9.8 7-14.9 13.3-14.9 3.1 0 7.7 1.3 8 6-4.9 0-10.7 2.3-10.7 8.5 0 4.5 2.9 8.7 8.7 8.7 6.1 0 10.6-4.4 10.6-12 0-15.6-18.6-21.1-18.6-34.5 0-9.5 9.3-16.3 21-16.3 4.3 0 14.6.9 14.6 10.9.1 5.5-2.8 9.4-7.3 9.4zm36.2 10.3c0-2.3-.8-3.7-2.5-3.7-5.7 0-11.7 16.6-11.7 26.7 0 6.2 2.2 7.6 6.6 7.6 7.1 0 11.6-4 16.1-9.2h3.1c-5.2 8.3-12.9 16.8-25 16.8-8.5 0-14.2-4.2-14.2-14.5 0-10.6 6-32.3 24.5-32.3 8.1 0 10.1 4.2 10.1 8.3 0 4.4-2.2 6.7-4.8 6.7-1 0-2.1-.4-3.1-1.1.5-1.9.9-3.6.9-5.3zm27.7-7.6l-1.2 5.7c3.1-2.7 6.7-5.7 11-5.7 4.1 0 6.3 3.3 6.3 6.9 0 3.1-2.1 6.7-6.6 6.7-5.1 0-2.5-6-5.3-6-2.7 0-4.4 1.4-6.7 3.4l-7.2 34.6h-13.1l9.6-45.4 13.2-.2zm34.2 0l-6.6 30.9c-.3 1.2-.4 2.1-.4 2.9 0 2.5 1.2 3.3 3.7 3.3 3.5 0 6.9-3.4 8.1-8h3.8c-5.2 14.8-14.2 16.8-19.1 16.8-5.5 0-9.7-3.2-9.7-10.9 0-1.8.3-3.7.7-5.9l6.2-29.2 13.3.1zm-4.1-19.4c4 0 7.2 3.2 7.2 7.2s-3.2 7.1-7.2 7.1-7.1-3.1-7.1-7.1c-.1-4 3.2-7.2 7.1-7.2zm29.1 16l-1.5 6.9c2.6-2.3 6.1-3.9 10.7-3.9 6.2 0 11.1 3.5 11.1 14.4 0 12.2-4.7 32.1-22.3 32.1-4.5 0-6.8-1.6-7.7-3.2l-4.7 22.1-13.7 3.2 15.2-71.5 12.9-.1zm7.8 17c0-7-2.9-7.5-4.5-7.5-2 0-4.5 1.6-6.3 4.4l-5.4 25.5c.4 1 1.4 2.1 3.4 2.1 9.7 0 12.8-15.9 12.8-24.5zm27.8 17.3c-.3 1.1-.5 2.2-.5 3.1 0 1.9.7 3.2 3.1 3.2.7 0 1.7 0 2.4-.3-2.5 7.8-6.6 8.9-9.6 8.9-6.4 0-9.1-4.4-9.1-10.3 0-1.6.2-3.1.6-4.8l5.8-27.2h-3l.7-3.6h3L528 366l13.4-1.9s-1.4 6.2-3.1 14.4h5.5l-.7 3.6h-5.5l-5.7 27.4z"></path>
</svg>
