<?xml version="1.0" encoding="utf-8"?>
<!-- Generator: Adobe Illustrator 18.1.0, SVG Export Plug-In . SVG Version: 6.00 Build 0)  -->
<svg version="1.1" id="Layer_1" xmlns="http://www.w3.org/2000/svg" xmlns:xlink="http://www.w3.org/1999/xlink" x="0px" y="0px"
	 viewBox="-76 212 458 369" enable-background="new -76 212 458 369" xml:space="preserve">
<title>CoffeeScript Logo</title>
<g>
	<g>
		<path fill="#28334C" d="M106,228.6c0.5,2.3-0.9,4.4-5,6.5c-5.5-3.1-16.9-4.4-26.7-3.5c-10.4,0.9-19.4,4.2-17.9,11.3
			c1.5,7.1,11.7,11,29.5,9.5c43.6-3.8,43.4-33.3,107.4-39c49.8-4.4,77.8,11,81.8,29.7c3.1,14.7-9.1,28.6-45.2,31.8
			c-32,2.8-50.7-5.6-52.6-14.6c-1-4.5,1.8-11.3,17.2-13.1c1.5,7,10.6,14.4,31.1,12.6c14.8-1.3,27.6-6.6,25.9-14.9
			c-1.8-8.6-17.7-13.7-42.6-11.5c-50.7,4.5-63.2,32.5-106.8,36.3c-30.8,2.7-55.9-8.5-59.4-25.1c-1.3-6.1-1.4-21,31.2-23.9
			C91,219.2,104.6,222.2,106,228.6L106,228.6z M-56.4,402.5c-14.3,18-20.4,38.8-19.2,59.2c1.2,20.4,11.4,37.1,26.9,50.2
			C-32,525-14,528.6,6.4,525c7.8-1.2,16.7-5.3,24.5-7.8c-16.7,0-31-5.3-44.9-16.7c-15.5-11.4-25.7-26.9-28.2-46.1
			c-3.7-18,0-34.7,10.2-49c11.4-14.3,25.7-22,44.9-24.5c19.2-1.2,35.9,3.7,52.6,15.5c-3.7-5.3-9-9-14.3-14.3
			c-16.7-11.4-34.7-16.7-56.7-11.4C-25.4,374.3-42.2,384.5-56.4,402.5z M167.2,306.2c-53.9,0-101.6-5.3-136.3-13.1
			c-37.1-9-56.7-19.2-56.7-32.2c0-5.3,2.4-10.2,10.2-15.5c-23.3,9-35.9,16.7-35.9,28.2c1.2,13.1,22,25.7,64.5,35.9
			c40,10.2,91.4,15.5,153,15.5c62.8,0,113-5.3,153-15.5c42.4-10.2,62.8-23.3,62.8-35.9c0-9-9-18-25.7-24.5c3.7,2.4,6.5,6.5,6.5,11.4
			c0,13.1-19.2,23.3-57.9,32.2C268.7,300.9,222.6,306.2,167.2,306.2L167.2,306.2z M320.2,342.1c-40,9-91.4,15.5-153,15.5
			c-62.8,0-114.2-6.5-154.2-15.5c-35.9-9-55.1-19.2-61.6-29.4c6.5,44.9,22,87.3,42.4,124.8c15.5,23.3,31,43.7,46.1,65.7
			c6.5,13.1,11.4,25.7,14.3,38.8c10.2,14.3,24.5,23.3,42.4,28.2c22,7.8,44.9,11.4,68.1,10.2h2.4c23.3,1.2,47.7-2.4,70.6-10.2
			c16.7-5.3,31-14.3,41.2-28.2h1.2c2.4-13.1,6.5-25.7,13.1-38.8c15.5-22,31-42.4,46.1-65.7c20.4-37.1,34.7-79.6,42.4-124.8
			C374,324.1,354.8,334.3,320.2,342.1L320.2,342.1z"/>
	</g>
</g>
</svg>
