<?xml version="1.0" standalone="no"?>
<!DOCTYPE svg PUBLIC "-//W3C//DTD SVG 20010904//EN"
 "http://www.w3.org/TR/2001/REC-SVG-20010904/DTD/svg10.dtd">
<svg version="1.0" xmlns="http://www.w3.org/2000/svg"
 width="916.000000pt" height="916.000000pt" viewBox="0 0 916.000000 916.000000"
 preserveAspectRatio="xMidYMid meet">
<metadata>
Created by potrace 1.11, written by Peter Selinger 2001-2013
</metadata>
<g transform="translate(0.000000,916.000000) scale(0.100000,-0.100000)"
fill="#000000" stroke="none">
<path d="M5555 8253 c-199 -8 -487 -49 -670 -94 -283 -70 -464 -155 -829 -387
-307 -196 -461 -259 -721 -297 -134 -20 -345 -19 -442 1 -160 33 -243 104
-243 208 0 59 38 103 118 139 159 72 516 78 707 11 l70 -24 40 28 c94 66 62
162 -73 213 -90 34 -196 48 -352 48 -404 1 -684 -104 -767 -286 -22 -48 -25
-65 -21 -138 8 -147 86 -267 241 -368 192 -125 402 -184 702 -194 248 -9 474
23 699 99 148 50 244 94 565 262 375 197 551 266 806 319 207 43 297 52 535
51 194 0 238 -3 319 -22 199 -46 311 -131 311 -235 0 -125 -160 -221 -435
-262 -333 -50 -606 26 -685 191 -25 50 -31 52 -128 29 -258 -61 -317 -257
-117 -390 157 -104 371 -149 700 -149 539 1 944 133 1084 352 108 171 68 386
-105 557 -195 192 -518 305 -959 335 -143 9 -193 10 -350 3z"/>
<path d="M1095 7556 c-323 -132 -512 -261 -576 -391 -35 -73 -33 -161 5 -235
139 -267 715 -511 1644 -696 1114 -222 2726 -285 4162 -163 584 49 1082 129
1590 255 590 146 1001 330 1155 518 135 165 92 351 -120 513 -68 52 -250 153
-276 153 -7 0 1 -15 18 -32 74 -77 93 -189 48 -286 -88 -189 -401 -351 -950
-491 -589 -149 -1176 -233 -2060 -293 -302 -21 -1490 -17 -1815 5 -988 68
-1692 183 -2240 366 -363 122 -575 252 -646 397 -58 118 -25 250 88 357 34 31
59 57 57 57 -2 -1 -40 -16 -84 -34z"/>
<path d="M554 6215 c42 -244 59 -335 76 -415 53 -243 141 -560 215 -779 19
-58 35 -108 35 -112 0 -4 -43 -38 -97 -75 -176 -126 -380 -340 -500 -527 -113
-176 -202 -394 -245 -602 -20 -96 -23 -139 -23 -330 0 -198 3 -229 24 -315 47
-189 122 -347 237 -500 235 -313 529 -501 879 -560 109 -19 341 -14 475 9 106
18 460 129 484 152 6 5 -15 9 -50 9 -158 0 -384 62 -556 152 -224 117 -495
354 -622 546 -119 178 -177 338 -216 592 -62 402 38 761 288 1030 l60 65 22
-50 c175 -407 322 -695 457 -894 59 -86 238 -340 398 -566 414 -584 421 -593
471 -701 97 -210 179 -432 220 -599 19 -80 58 -137 172 -252 180 -182 363
-282 727 -398 303 -96 462 -132 770 -177 128 -18 1029 -18 1175 0 304 39 499
81 780 169 266 83 422 160 600 294 77 58 207 185 257 251 15 20 35 38 43 41
10 2 21 34 33 93 37 180 111 402 199 595 23 50 146 230 360 530 518 724 597
846 743 1142 270 549 475 1133 614 1752 45 203 92 447 88 452 -2 2 -22 -19
-45 -46 -153 -181 -518 -355 -1007 -479 -1503 -383 -3714 -462 -5485 -196
-390 58 -751 129 -988 195 -511 141 -861 305 -1025 482 -46 50 -48 51 -43 22z"/>
</g>
</svg>
